PathFileType	4	(X/Y/Z)	66_2_6_p0_0-359_filt_butterworth.trc
DataRate	CameraRate	NumFrames	NumMarkers	Units	OrigDataRate	OrigDataStartFrame	OrigNumFrames
60.0	60.0	5	27	m	60.0	179	359
Frame#	Time	RHip			RKnee			RAnkle			RBigToe			RSmallToe			RHeel			LHip			LKnee			LAnkle			LBigToe			LSmallToe			LHeel			Neck			Head			Nose			RShoulder			RElbow			RWrist			RThumb			RIndex			RPinky			LShoulder			LElbow			LWrist			LThumb			LIndex			LPinky			
		X1	Y1	Z1	X2	Y2	Z2	X3	Y3	Z3	X4	Y4	Z4	X5	Y5	Z5	X6	Y6	Z6	X7	Y7	Z7	X8	Y8	Z8	X9	Y9	Z9	X10	Y10	Z10	X11	Y11	Z11	X12	Y12	Z12	X13	Y13	Z13	X14	Y14	Z14	X15	Y15	Z15	X16	Y16	Z16	X17	Y17	Z17	X18	Y18	Z18	X19	Y19	Z19	X20	Y20	Z20	X21	Y21	Z21	X22	Y22	Z22	X23	Y23	Z23	X24	Y24	Z24	X25	Y25	Z25	X26	Y26	Z26	X27	Y27	Z27	
179	2.9833333333333334	0.554329467841109	0.5950691126392172	1.1130897966078237	0.5480738403364975	0.16107418097055665	1.1202464797705125	0.5289609554323801	-0.24527490841134023	1.1258272702321224	0.49315690024107395	-0.21885258431363125	0.882424502393873	0.5619727631895214	-0.21785916911160727	0.9079944358310938	0.5055693881998542	-0.31918826273389433	1.2027089572394223	0.34552469606419656	0.5860337696845657	1.13654927207452	0.3298623484584835	0.1677114587478754	1.1248177807763782	0.3257869269039343	-0.2141455041758616	1.134790028443866	0.3295446108768316	-0.20373731274579662	0.9051329307840552	0.27230376996254724	-0.23081951804127182	0.9792565851207888	0.35059760768046516	-0.2765812969606697	1.18706948868837	0.4595450737933362	1.162726131180385	1.1665623257500637	0.4625019737751205	1.4058941530253395	1.1433336658333766	0.4494532635046551	1.2958305398279266	1.0969175702782845	0.6052099156772595	1.0751436606868752	1.1053428894248065	0.6299398428740244	0.8148321686722475	1.0657379632078006	0.5169903270743053	0.6456751654712011	0.9263444255963276	0.42456372248749163	0.5704384857853462	0.9144884233373327	0.4229505015720187	0.546406055812801	0.9299854358091124	0.4347820567699172	0.5354058524860525	0.947162766201821	0.31185012374128	1.073943587034277	1.177480976753333	0.2789974714900109	0.8338059229505844	1.0866481614036545	0.3414959042546758	0.684803785655354	0.9093273343565824	0.4328491303120877	0.6455254005183719	0.8599763974505317	0.4160373706914297	0.6138127531534686	0.8490749088088931	0.3913955749797364	0.5906626875162627	0.8488183785435226	
180	3.0	0.5535708197658563	0.5951478750790209	1.112733453235237	0.5477770078820997	0.16141395939196923	1.12024540663454	0.5290679368119464	-0.24470135982472968	1.1258030674091164	0.4927360218328527	-0.2192002598000737	0.8828573599735409	0.5617150599239102	-0.21797507779781317	0.9083390372705524	0.5057031859891906	-0.31923439626629463	1.2032470696271356	0.3449396482272608	0.5856055569023302	1.1349298995698396	0.32975500519076467	0.16778908657975844	1.124652958194925	0.3257215934363123	-0.2141258768788242	1.134805256608534	0.3287504563346112	-0.20334253918147216	0.9038131348548406	0.2721310778431525	-0.2306498102344058	0.9789803804020669	0.3503146022459011	-0.2770372179316751	1.188307089392307	0.45954526987721217	1.1626851748734233	1.1667696190487744	0.462527226240308	1.405844604665711	1.143598439885017	0.44957405252965804	1.2961231000017324	1.0975805797560791	0.6063410081892748	1.0744227228363765	1.1081311345560292	0.6269962748049465	0.8157546339375261	1.0638414579084614	0.5090225764021196	0.6531987234779603	0.9264549215659941	0.4203117975818469	0.5835716436751806	0.9083817050135662	0.4154803694614299	0.5581925771816395	0.9268001675826227	0.4210855601911057	0.5491338941634608	0.9384536833084207	0.31201885333701807	1.0735238556461355	1.1777767170362725	0.281819652332179	0.833136210396051	1.0827750406122099	0.35086296268086625	0.6866093356020506	0.9074306019466056	0.44117501989014135	0.6573494887213487	0.8518033705680421	0.42859299639399207	0.615463869239855	0.8541909369167926	0.4002646317210541	0.5853802324238829	0.8685907818780501	
181	3.0166666666666666	0.5529039875939059	0.5951858296819368	1.1123163108274259	0.5473867223190831	0.1615637305802517	1.1202771894914825	0.5290879977256077	-0.2441840130325956	1.1257892615681773	0.4923773078006538	-0.21945973858102774	0.8832185424849578	0.561441591633866	-0.21802762172932505	0.9085566618149369	0.5057840895835958	-0.31927054280657624	1.2037528717859753	0.34436246855919317	0.5855358407099782	1.133008491937736	0.32968812228892086	0.16767461811225703	1.1248733183613806	0.32566870758095845	-0.21408503598783601	1.1348080332299784	0.32769687717758755	-0.20369346636375416	0.9032770462186025	0.27211502686106076	-0.2305981039765973	0.9789186459101854	0.35005519460102436	-0.27761503201022586	1.1897386246249348	0.45953379844678177	1.1626815290074388	1.166862236345923	0.4625904209275532	1.4058420929172248	1.1436069937784412	0.44955641334467955	1.2961361344444084	1.0975558181079779	0.6073970400587255	1.0738194795629696	1.1102856167278992	0.6248513486570668	0.8163641834353854	1.063239705505373	0.5026901321817585	0.658932506408918	0.9302889511801032	0.42204716741684467	0.5949145656531212	0.9019695337909237	0.4141631914080959	0.5661891504765724	0.9245331040417863	0.4140941483345805	0.5592578016993457	0.9325690756264635	0.31211524585804534	1.0734671960450304	1.1780536671365522	0.28301655678298543	0.8326298082828708	1.0812291149742164	0.3611411868849771	0.6867769202466361	0.9092622698450131	0.45014965048272704	0.666336826633369	0.8470596027108431	0.4417621952912709	0.6159493515709769	0.8615126737231742	0.4082530219400969	0.5794811882442675	0.8899548787897362	
182	3.033333333333333	0.5523426740660422	0.5952412427745724	1.1117346566402846	0.546978913515438	0.16164550961031576	1.1203402281333639	0.5290103043340584	-0.24367595366570605	1.125787835593238	0.49194583618116794	-0.219594296981428	0.8834977813150626	0.5611915065053945	-0.2180169550677849	0.9086375707685715	0.5058022067852044	-0.3193443341724581	1.2041867651617701	0.3436198510395539	0.5858512209742023	1.1311307089879092	0.3295734187445843	0.1674214312922528	1.1253383377104131	0.32562665807202307	-0.21405581529721587	1.134814443943902	0.32649487713277014	-0.20469285121895728	0.9035456612591106	0.2724028722478866	-0.23066385897164343	0.9790601171143791	0.34980009491904646	-0.27822759818105425	1.191307846356652	0.4595134938894023	1.162713083756461	1.1668337034644005	0.46267757423172284	1.4058822827347135	1.1433603886653771	0.44964103660617394	1.2958778467987329	1.0967816716668006	0.6081187004934943	1.0734843994511407	1.1115106032490318	0.6238176683946621	0.8171740823540892	1.0627700108152405	0.498047680258468	0.663039886508826	0.9368194711064016	0.42756138614013917	0.6042446465469136	0.8967078879477908	0.4169556255151934	0.5705961671665851	0.9240861011216169	0.4124878431360476	0.564395823926747	0.9324238382391079	0.31213132582921366	1.0735481533262239	1.1781793468283401	0.283043403940722	0.8329949791208789	1.0800900391987351	0.371103773377762	0.685474387622554	0.9156806273556574	0.4586364464944752	0.6707707941199619	0.849082767789331	0.4539718757170205	0.615007496673345	0.8719769575419483	0.4150326099638213	0.5745327272921097	0.9090218871783139	
183	3.05	0.5518868140290353	0.5953322284552622	1.1110305013633153	0.5465776155118331	0.16175140243299724	1.1204327500121076	0.5288592843274813	-0.24307622729094194	1.1258221035604716	0.49138184355910386	-0.2196545159588191	0.8837397124810955	0.5609833679540134	-0.21795824119156135	0.908603655526427	0.5057696000254988	-0.319546283671477	1.204555519727233	0.3427937080283529	0.5864903352650618	1.1294111238343074	0.32939672648464596	0.16704040543568188	1.1259388079351889	0.3255966063444721	-0.21405186993517228	1.1348414165823775	0.32536592469874537	-0.20613123683019627	0.9042429059603836	0.27301197245514797	-0.2308256166662066	0.979336380891233	0.34949609031685325	-0.2788707222665605	1.192805035910669	0.4594919829815671	1.1627636922089972	1.1667152337457698	0.46277721200866606	1.4059566367348721	1.142900756906301	0.4500616892943601	1.2954387938660377	1.0952091855698765	0.6084100408954287	1.0734343642277122	1.1118519895118162	0.6241244167217423	0.8183778014365369	1.0619600661084732	0.49499822042732633	0.6659493551467264	0.9444418072432423	0.4340125462452372	0.612211410585586	0.8938442400829176	0.42099109072272356	0.5732327333021913	0.9256074221025302	0.4139989642105153	0.5649123959463396	0.938793457282622	0.3120891242747895	1.0736877702934973	1.178083254794816	0.2823218018547916	0.8343541323499364	1.0783315610345117	0.3796402024126554	0.6833223022024155	0.9259994048814485	0.46527253421075965	0.6705172001582497	0.8583910242269471	0.46362982901018535	0.6132614667223053	0.8845977766922943	0.4203543204799292	0.5716649629137536	0.9237360881857178	
